<svg xmlns="http://www.w3.org/2000/svg" fill="var(--artf-ink, currentcolor)" fill-rule="evenodd" viewBox="0 0 24 24"><path d="M11.894.431c-.146.048-.219.115-.589.541-1.047 1.209-1.66 2.131-2.166 3.261a14 14 0 0 0-.475 1.256c-.223.722-.31 1.064-.398 1.555-.034.19-.077.415-.096.5-.039.181-.066.42-.119 1.067-.057.699-.051 1.935.013 2.791.032.431.042.676.028.712-.026.069-.102.147-.341.348-.227.192-.6.575-.723.742-.206.28-.517.766-.517.808 0 .008-.034.086-.077.173-.169.35-.292.716-.424 1.259-.035.147-.093.721-.112 1.123-.015.323.044 1.847.08 2.032a.62.62 0 0 0 .342.457c.167.07.293.009.747-.358a35 35 0 0 1 1.434-1.078c.461-.307.533-.34.628-.289.063.034.132.188.185.417.026.108.066.276.091.374s.068.282.097.409c.09.389.185.56.375.667.121.068.167.121.167.193 0 .021-.073.149-.162.284-.089.136-.192.296-.228.355l-.143.236-.209.348c-.072.12-.156.259-.187.308l-.127.211c-.038.068-.127.221-.196.34-.07.12-.15.271-.179.336a1 1 0 0 1-.149.218l-.097.1-.643.014c-.353.008-1.399.015-2.323.015h-1.68l-.099.05a.52.52 0 0 0-.253.314c-.031.163.088.393.254.49l.077.046h16.741l.096-.068c.142-.1.196-.209.196-.399s-.043-.272-.193-.367l-.104-.066-2.346-.001c-1.301 0-2.384-.009-2.431-.02q-.171-.04-.26-.26c-.097-.238-.59-1.169-.895-1.692l-.156-.266-.166-.276c-.146-.238-.146-.241.037-.411.185-.171.231-.258.291-.541.024-.116.06-.261.079-.322a5 5 0 0 0 .079-.315c.057-.258.187-.647.235-.7.043-.047.134-.053.224-.014.129.055.944.655 1.729 1.273.559.441.626.483.768.483.096 0 .133-.013.239-.086.274-.189.306-.304.339-1.236.032-.903.015-1.671-.046-2.019-.11-.628-.14-.761-.242-1.053-.362-1.036-.743-1.585-1.57-2.259-.17-.138-.308-.269-.333-.315-.04-.076-.041-.099-.014-.564.094-1.603.092-2.458-.008-3.251-.017-.14-.048-.415-.068-.61a5 5 0 0 0-.088-.556 7 7 0 0 1-.088-.401 3 3 0 0 0-.079-.333 5 5 0 0 1-.089-.333 6 6 0 0 0-.112-.4l-.108-.334c-.12-.379-.223-.642-.477-1.23-.362-.836-1.065-1.935-1.757-2.747L12.812 1c-.284-.335-.433-.486-.53-.536a.54.54 0 0 0-.388-.033m.031 1.304a11.208 11.208 0 0 0-1.434 2.027c-.202.388-.161.449.345.516.587.077 2.284.085 2.708.013.23-.039.291-.172.159-.345a1.3 1.3 0 0 1-.1-.168c-.055-.116-.099-.186-.438-.7-.329-.5-.807-1.139-.987-1.319q-.125-.125-.253-.024M9.927 5.134a.6.6 0 0 0-.122.161c-.089.16-.313.866-.429 1.349-.15.629-.181.775-.221 1.056-.024.171-.059.391-.077.489-.121.656-.126 2.501-.01 3.511.024.208.064.568.088.8s.069.552.098.711c.03.159.071.409.09.556.02.146.056.351.081.455.024.104.068.324.098.489s.068.344.087.397.055.199.079.322c.025.124.069.306.098.403s.07.258.091.356c.046.214.12.367.204.424.055.037.125.044.596.057.839.023 2.292.021 2.755-.004.622-.034.625-.036.786-.566.104-.343.193-.695.252-1 .023-.122.072-.352.108-.511.035-.159.085-.423.109-.587.025-.163.055-.334.067-.379a5 5 0 0 0 .111-.679c.024-.195.063-.485.087-.644.079-.529.102-1.029.102-2.256 0-.759-.01-1.282-.028-1.5a15 15 0 0 0-.23-1.5 17 17 0 0 1-.108-.477 3 3 0 0 0-.099-.378 2 2 0 0 1-.08-.27 2 2 0 0 0-.098-.308 2 2 0 0 1-.079-.212c-.031-.117-.12-.217-.207-.233a.8.8 0 0 0-.232.022c-.435.092-2.103.14-2.827.081-.409-.034-.559-.057-.794-.125-.229-.067-.273-.068-.346-.01M11.7 7.066c-.292.064-.729.28-.919.454-.351.323-.558.736-.626 1.253-.038.293.051.726.205.996.24.422.585.696 1.09.866.436.147.745.148 1.183.005.599-.195 1.016-.609 1.205-1.196.077-.238.083-.273.082-.522a1.3 1.3 0 0 0-.083-.525 1.95 1.95 0 0 0-.455-.793 1.85 1.85 0 0 0-.68-.445l-.246-.101-.334-.005a3 3 0 0 0-.422.013m.222.903c-.14.035-.397.156-.476.224a1.4 1.4 0 0 0-.286.392c-.042.098-.058.366-.029.506a1 1 0 0 0 .31.501c.305.249.832.259 1.143.022.253-.194.364-.448.344-.794a.88.88 0 0 0-.522-.768c-.164-.078-.364-.113-.484-.083m3.938 5.433c-.057.034-.076.097-.125.417a6 6 0 0 1-.088.449 4 4 0 0 0-.08.388 4 4 0 0 1-.089.413 4 4 0 0 0-.089.402c-.018.116-.048.26-.067.32-.076.253-.039.33.29.606.223.187 1.29 1.001 1.412 1.078.077.048.163.035.198-.031.042-.078.037-1.053-.007-1.422-.056-.464-.074-.556-.175-.878a4.8 4.8 0 0 0-.812-1.5 3 3 0 0 0-.175-.203c-.056-.051-.144-.068-.193-.039m-7.785.059c-.129.115-.351.417-.553.75-.116.191-.322.608-.322.65a1 1 0 0 1-.065.18 3.4 3.4 0 0 0-.146.548c-.077.378-.082.435-.101 1.033-.025.771-.016.845.1.845.028 0 .169-.085.314-.189.146-.104.45-.319.676-.477.518-.363.769-.563.814-.651.047-.092.031-.25-.057-.55a5 5 0 0 1-.103-.433 7 7 0 0 0-.088-.411 5 5 0 0 1-.077-.378 18 18 0 0 0-.093-.527c-.087-.459-.142-.531-.299-.39m2.316 4.257c-.032.032-.058.067-.058.079 0 .062.097.421.126.466.074.115.076.115 1.595.115.986 0 1.427-.008 1.465-.025.066-.03.089-.079.149-.312.052-.207.038-.282-.064-.33-.046-.022-.417-.031-1.608-.039l-1.548-.011zm.77 1.67c-.09.076-.212.267-.564.884l-.171.3c-.151.265-.239.412-.359.606l-.206.333c-.3.484-.327.573-.191.62.049.017.742.025 2.323.025 2.493 0 2.407.004 2.407-.133 0-.07-.06-.205-.188-.423a214.007 214.007 0 0 0-.691-1.2l-.166-.289a11 11 0 0 0-.177-.3 7 7 0 0 1-.142-.238.7.7 0 0 0-.134-.162l-.074-.057-.802-.01-.801-.01z"/></svg>