<svg xmlns="http://www.w3.org/2000/svg" fill="var(--artf-ink, currentcolor)" fill-rule="evenodd" viewBox="0 0 24 24"><path d="M2.244 6.289a2.4 2.4 0 0 0-.699.256 1.92 1.92 0 0 0-.784.999l-.083.245L.671 12c-.004 2.877.001 4.25.017 4.333.064.335.284.733.528.957.229.209.423.32.806.462.093.034.816.037 9.922.037h9.823l.144-.052c.408-.147.717-.349.941-.615.167-.198.333-.532.374-.749.024-.132.03-.944.03-4.406 0-4.77.013-4.38-.168-4.711-.302-.551-.789-.89-1.388-.968-.189-.024-19.311-.024-19.456.001m.047.989c-.163.036-.259.094-.406.243a.6.6 0 0 0-.198.397c-.013.084-.019 1.729-.015 4.249l.006 4.111.049.1c.129.261.43.458.75.491.196.021 16.433.019 18.101-.001l1.033-.012.169-.083a.85.85 0 0 0 .427-.436l.071-.148.011-.989c.006-.544.011-2.405.01-4.137l-.001-3.147-.082-.166c-.095-.192-.248-.356-.394-.423-.075-.034-.171-.049-.39-.062-.16-.009-4.5-.017-9.645-.017-7.971-.001-9.375.004-9.496.03m17.048 1.121a.4.4 0 0 0-.242.17c-.049.064-.063.109-.069.217a.34.34 0 0 0 .06.252c.11.189.129.194.734.203.332.004.552-.002.603-.017a.44.44 0 0 0 .16-.112.415.415 0 0 0-.016-.599.4.4 0 0 0-.183-.114c-.103-.024-.945-.024-1.047 0m-11.423.029a.4.4 0 0 0-.149.107.455.455 0 0 0-.05.541c.095.166.095.166.705.172.619.005.645 0 .729-.152.152-.276.042-.603-.226-.671-.125-.031-.908-.029-1.009.003m2.15.022c-.177.089-.247.263-.2.492a.6.6 0 0 0 .072.182c.088.11.148.12.729.12.596 0 .616-.004.726-.147.05-.066.063-.109.07-.231.01-.183-.03-.282-.15-.365-.131-.09-.204-.101-.691-.101-.43 0-.463.003-.556.05m2.359-.029q-.264.067-.285.397c-.008.124-.001.165.042.249.09.174.114.179.8.172.559-.005.596-.008.654-.051.128-.096.153-.154.153-.355 0-.219-.034-.283-.19-.359-.09-.044-.145-.049-.599-.06a5 5 0 0 0-.575.007m4.564.01c-.209.094-.298.389-.183.613.097.19.094.189.761.189.559 0 .588-.002.648-.046a.433.433 0 0 0 .078-.637.6.6 0 0 0-.153-.12c-.102-.042-1.056-.041-1.151.001m-2.301.052c-.176.09-.21.15-.21.361 0 .189.027.249.153.344.058.043.09.045.658.045s.6-.002.658-.045c.113-.085.15-.157.159-.305.011-.197-.052-.316-.214-.399l-.119-.062h-.965zm-8.237.294a.295.295 0 0 0 .015.512c.168.085.334.034.404-.125.088-.198-.058-.431-.27-.431-.043 0-.11.02-.149.044m-2.355 1.07a.51.51 0 0 0-.344.218.47.47 0 0 0 .003.451c.103.151.142.162.582.162.362 0 .398-.004.456-.046a.47.47 0 0 0 .162-.353c-.001-.207-.103-.351-.288-.408a2.1 2.1 0 0 0-.571-.024m3.871.128c-.129.024-.179.057-.257.172-.129.187-.104.395.066.549.117.105.236.126.711.126h.397l.106-.072c.135-.091.183-.157.206-.283.035-.196-.04-.365-.198-.446-.077-.039-.143-.046-.515-.054a5 5 0 0 0-.516.008m2.133.035c-.202.073-.305.318-.231.548.031.096.15.205.261.238.107.033.893.035 1.006.004a.64.64 0 0 0 .308-.266c.069-.167-.015-.382-.194-.493-.08-.05-.103-.052-.572-.057-.382-.005-.509.001-.578.026m4.689-.014c-.261.049-.376.261-.298.548.03.113.139.228.241.256.044.012.302.022.574.022.45 0 .504-.004.582-.044a.41.41 0 0 0 .213-.433.38.38 0 0 0-.198-.289c-.097-.057-.11-.058-.562-.067a6 6 0 0 0-.552.007m2.232.003c-.171.052-.243.166-.243.382q0 .277.185.384c.089.052.111.054.604.061.588.008.603.005.736-.19a.32.32 0 0 0 .075-.24.5.5 0 0 0-.032-.192.45.45 0 0 0-.236-.204c-.089-.026-1.006-.027-1.089-.001m2.334-.001c-.157.017-.226.063-.289.192a.52.52 0 0 0 .027.45c.09.174.123.182.747.182.592 0 .603-.002.73-.137.11-.118.128-.17.121-.369-.003-.116-.173-.284-.316-.315-.115-.024-.805-.027-1.02-.003m-6.999.027c-.264.105-.301.564-.06.74.06.044.092.046.66.046.57 0 .599-.002.659-.046.118-.088.163-.18.163-.336 0-.151-.03-.232-.115-.311-.115-.108-.181-.118-.735-.117-.285.001-.542.012-.572.024m-5.947.077c-.255.126-.3.38-.098.55.248.208.628.035.594-.269-.014-.126-.071-.203-.194-.266-.114-.059-.205-.063-.302-.015m-3.227 2.211a.55.55 0 0 0-.405.355c-.016.061-.022.403-.016 1.061.008 1.067-.002.987.16 1.291.192.359.666.742 1.008.814.403.086 1.491.087 1.805.002.318-.086.734-.421.965-.78.213-.331.234-.458.234-1.428 0-.741-.016-.919-.096-1.061a.57.57 0 0 0-.385-.257c-.16-.026-3.136-.024-3.27.003m4.703-.002c-.221.038-.368.202-.418.465-.027.14-.028 1.216-.002 1.568.034.469.168.739.536 1.085.245.231.516.378.777.421.264.044 1.409.036 1.629-.011.419-.09.868-.442 1.097-.862.069-.128.125-.263.14-.344.037-.192.022-1.885-.018-1.977a.9.9 0 0 0-.304-.308c-.088-.048-.092-.048-1.711-.051a46 46 0 0 0-1.726.014m4.771-.002a.6.6 0 0 0-.398.36c-.034.088-.037.199-.031 1.032l.006.932.077.178c.235.547.722.943 1.29 1.049.297.056 1.184.056 1.489 0 .526-.096.994-.486 1.25-1.043l.094-.206v-.933c0-.712-.007-.953-.029-1.016-.038-.108-.184-.255-.312-.314-.102-.048-.115-.048-1.736-.052a47 47 0 0 0-1.7.013m4.764.011a.67.67 0 0 0-.368.336c-.035.078-.041.181-.048.88-.004.436.002.871.013.968.075.614.696 1.25 1.321 1.351.286.047 1.321.047 1.561.001.496-.094 1.078-.638 1.216-1.135.047-.168.05-.218.051-1.043.001-.78-.003-.88-.04-1-.05-.161-.198-.319-.34-.362-.135-.04-3.252-.037-3.366.004m-13.536.967c-.185.038-.202.093-.192.64l.008.44.08.168a.54.54 0 0 0 .192.25c.182.133.257.15.728.164.249.007.49.002.587-.012.198-.028.418-.132.517-.245.137-.155.147-.208.155-.76.007-.452.004-.506-.032-.562a.26.26 0 0 0-.096-.082c-.074-.028-.723-.028-.797.001-.087.033-.092.081-.018.184.089.124.105.183.072.263-.037.09-.127.131-.285.131-.165 0-.196-.012-.237-.091-.043-.082-.041-.156.005-.304.037-.117.037-.122-.004-.152-.029-.022-.108-.031-.257-.031-.119 0-.244-.004-.279-.009a.5.5 0 0 0-.147.007m4.694.017c-.129.068-.136.098-.129.629.006.456.009.483.061.589a.9.9 0 0 0 .346.355c.134.064.514.09.948.065.305-.017.379-.029.466-.071a.76.76 0 0 0 .364-.364c.062-.134.065-.159.081-.592.009-.261.008-.473-.004-.504-.042-.112-.102-.127-.517-.132a3 3 0 0 0-.433.013q-.102.036.016.185c.083.104.096.147.069.22-.069.18-.434.221-.559.063-.048-.061-.049-.088-.007-.339q.014-.08-.019-.105c-.019-.016-.15-.032-.319-.04-.251-.011-.296-.008-.364.028m4.718.004c-.108.068-.126.169-.111.603.014.424.038.558.124.694.068.106.254.242.407.297.126.046.693.066.989.036.265-.028.399-.087.566-.252.161-.16.185-.263.185-.813v-.45l-.062-.061-.062-.062-.376-.007c-.422-.008-.481.005-.456.102a.4.4 0 0 0 .057.118c.07.098.057.204-.036.285-.067.059-.095.069-.199.069-.109 0-.131-.009-.213-.083-.089-.08-.091-.085-.079-.194.007-.062.019-.139.027-.171.025-.102-.051-.13-.393-.144-.273-.011-.303-.008-.368.033m6.043-.009c-.089.04-.092.085-.013.2a.34.34 0 0 1 .059.149c0 .123-.14.219-.318.219-.222 0-.321-.116-.253-.296.019-.051.04-.126.046-.165.01-.062.003-.075-.048-.095-.082-.031-.64-.029-.71.003-.098.045-.124.141-.124.456q.002.616.09.8c.054.112.275.292.418.341.111.038.771.055 1.009.025.333-.04.598-.197.676-.398.035-.09.04-.175.04-.621v-.516l-.061-.062c-.062-.061-.063-.061-.4-.067-.259-.004-.356.002-.411.027"/></svg>