<svg xmlns="http://www.w3.org/2000/svg" fill="var(--artf-ink, currentcolor)" fill-rule="evenodd" viewBox="0 0 24 24"><path d="M3.45 2.785a.75.75 0 0 0-.378.251c-.182.201-.179.187-.192 1.003-.01.653-.015.729-.052.766-.036.035-.097.04-.571.043-.386.003-.572.013-.68.038-.384.09-.814.442-1.001.817-.178.36-.166-.228-.158 7.474.008 7.742-.012 6.984.188 7.349.189.345.451.569.857.734l.217.089h20.754l.201-.085c.515-.216.818-.586.93-1.132l.047-.234-.007-6.863c-.006-6.291-.01-6.877-.045-7.029a1.56 1.56 0 0 0-.772-.989c-.264-.133-.428-.158-1.035-.159-.278-.001-.517-.011-.54-.023a.16.16 0 0 1-.061-.063c-.011-.022-.025-.349-.031-.726l-.012-.686-.078-.142c-.108-.201-.282-.359-.451-.411-.119-.037-.219-.041-.877-.039-.771.003-1.469.036-1.863.088-.549.073-.949.132-1.097.162l-.412.081a9 9 0 0 0-.491.113 7 7 0 0 1-.377.092 1 1 0 0 0-.173.046c-.02.01-.153.054-.297.098-1.084.329-1.989.794-2.65 1.362-.169.145-.258.207-.3.207-.061 0-.131-.049-.389-.276-.278-.245-.783-.565-1.236-.784a9.7 9.7 0 0 0-1.812-.665c-.482-.129-.529-.14-1.155-.263a21 21 0 0 0-1.531-.205c-.874-.071-2.27-.092-2.47-.039m1.11 1.427a.3.3 0 0 0-.094.054l-.048.044-.017 6.306c-.009 3.467-.01 6.327-.002 6.353.028.089.117.111.515.127.449.019 1.622.136 1.856.185.091.019.295.055.452.081.157.025.343.062.412.082s.229.06.355.088c.576.126 1.737.51 2.228.737.702.323.864.394.904.394a.2.2 0 0 0 .092-.033c.043-.031.044-.121.044-6.017V6.629l-.056-.115c-.15-.307-.841-.853-1.487-1.176a9 9 0 0 0-1.657-.607 5 5 0 0 1-.303-.08 4 4 0 0 0-.354-.08 6 6 0 0 1-.383-.08 6 6 0 0 0-.526-.09 17 17 0 0 1-.548-.081 10 10 0 0 0-.709-.068c-.283-.019-.54-.039-.571-.043a.4.4 0 0 0-.103.003m14.171.062c-.363.031-1.021.107-1.382.161-.28.041-.974.182-1.063.216a3 3 0 0 1-.254.07c-.538.125-1.306.428-1.998.789-.16.083-.569.349-.745.484-.285.219-.437.386-.465.513-.035.159-.034 12.059.001 12.101.041.05.127.038.268-.036.404-.211 1.491-.618 2.267-.848.461-.137.551-.161.731-.194.107-.02.267-.056.355-.079a4 4 0 0 1 .423-.079c.144-.021.376-.056.514-.08s.318-.049.4-.057a36 36 0 0 1 1.467-.081c.2 0 .277-.026.313-.106.019-.041.026-1.792.026-6.372V4.36l-.048-.06c-.045-.057-.056-.06-.257-.057-.115.001-.364.016-.553.031M2.187 6.364c-.197.014-.232.038-.258.176-.007.041-.01 3.014-.005 6.607.009 6.976.002 6.613.117 6.657.068.026 7.556-.018 7.622-.045.07-.028.065-.083-.012-.12-.142-.07-.485-.184-1.217-.406-.296-.09-.732-.203-1.016-.262-.15-.032-.33-.073-.4-.091a4 4 0 0 0-.412-.068 28 28 0 0 1-.572-.08c-.389-.061-.881-.09-1.748-.105-.769-.013-.86-.023-1.056-.116a.72.72 0 0 1-.331-.406c-.019-.07-.025-1.568-.021-5.827.003-4.047-.003-5.755-.02-5.808a.18.18 0 0 0-.083-.101c-.059-.027-.273-.029-.588-.005m19.078-.005a.2.2 0 0 0-.091.055c-.04.045-.041.262-.042 5.856-.001 5.651-.002 5.812-.044 5.89-.143.265-.316.391-.597.433-.075.011-.486.026-.914.034-.877.016-1.418.045-1.703.093-.107.018-.323.048-.48.067a10 10 0 0 0-1.085.22 10 10 0 0 0-.709.204 4 4 0 0 1-.274.093c-.428.132-.763.273-.844.355-.049.049-.013.096.086.111.04.006 1.72.016 3.735.022l3.662.012.058-.051.057-.05.001-6.611c.001-4.471-.006-6.625-.022-6.655a.2.2 0 0 0-.096-.069c-.068-.024-.589-.031-.698-.009"/></svg>