<svg xmlns="http://www.w3.org/2000/svg" fill="var(--artf-ink, currentcolor)" fill-rule="evenodd" viewBox="0 0 24 24"><path d="M16.668 2.466c-1.071.008-2.185.026-2.474.04-1.794.085-3.115.088-5.53.013-2.612-.082-3.93-.074-4.477.026-.14.025-.5.164-.684.265-.379.206-.708.532-.879.87a3.2 3.2 0 0 0-.275.98c-.056.577-.028 1.887.07 3.254.011.16.031.906.043 1.657.04 2.4.065 2.831.204 3.425.17.732.522 1.173 1.25 1.569.211.114.327.238.444.474l.106.214v.293c0 .26-.007.314-.06.473-.096.281-.197.833-.197 1.071 0 .195.053.489.116.653.041.104.183.304.29.406.477.455 1.284.538 1.862.191.335-.201.626-.596.703-.953.041-.193.029-.638-.028-1.01-.047-.309-.037-.661.025-.85.053-.166.252-.391.396-.449.126-.05.404-.068.53-.034.129.035.277.178.556.538.184.236.246.298.395.397.195.129.302.166.63.222a1 1 0 0 0 .383.012c.336-.053.522-.142.87-.419.271-.216.449-.305.642-.319.413-.03.79.219.992.654.126.271.156.434.125.678a1.3 1.3 0 0 1-.056.263c-.072.173-.218.79-.23.975-.031.474.144.901.479 1.164.134.106.434.249.611.292.164.04.754.04.918 0s.474-.199.632-.324a1.4 1.4 0 0 0 .421-.567l.098-.218.009-.349c.008-.332.005-.362-.063-.635-.061-.246-.07-.318-.063-.502.007-.191.017-.233.085-.372.162-.331.403-.506.852-.618.227-.057.339-.072.604-.081.559-.019.836.086.985.372.015.03.051.189.079.354.059.341.102.433.299.64a.9.9 0 0 0 .304.216c.256.122.373.142.752.13.315-.009.329-.012.569-.104.538-.206.849-.511 1.049-1.029l.092-.239-.002-.425c0-.234-.005-.632-.009-.884-.01-.562.016-.712.178-1.041a1.7 1.7 0 0 1 .324-.459c.335-.37.446-.607.506-1.08.035-.283-.036-.772-.177-1.214-.131-.409-.146-.779-.093-2.184.037-.973.012-2.24-.063-3.168-.024-.295-.05-.784-.058-1.086-.021-.798-.034-.882-.167-1.153-.189-.383-.48-.648-.923-.84-.454-.197-.543-.201-3.97-.175m-11.675.603c-.454.018-.551.033-.871.132q-.652.202-.912.75c-.116.245-.122.323-.035.461.092.145.368.391.665.591.061.042.168.12.237.173s.366.277.66.497c.295.221.601.454.681.517.491.391.888.703 1.591 1.252l.894.696.392.303.526.408c.129.1.351.274.492.386.375.297.752.584 1.355 1.03q.8.593 1.266.597c.349.003.823-.239 1.521-.776l.619-.483c.245-.191.545-.422.669-.512.123-.091.393-.302.6-.469A62.04 62.04 0 0 1 16.96 7.35c.173-.133.568-.445.877-.693.309-.249.661-.523.782-.61l.31-.222c.098-.071 1.425-1.057 1.682-1.25.349-.263.455-.443.408-.697a.63.63 0 0 0-.194-.393c-.16-.165-.271-.232-.523-.316-.374-.124-.489-.128-2.85-.113-2.253.014-3.304.038-4.095.091-.272.018-1.034.039-1.693.047a32 32 0 0 1-2.742-.061c-.526-.03-2.72-.089-3.157-.084a32 32 0 0 0-.772.02m15.911 1.985-.154.12-.466.351a53 53 0 0 0-.931.71c-.049.036-.269.208-.491.381s-.438.34-.481.37c-.121.083-.746.571-.997.776-.123.101-.506.401-.85.668-.345.266-.837.652-1.094.857s-.606.479-.776.609c-.494.376-.663.507-.996.77-.526.416-.785.576-1.119.688-.22.074-.231.075-.605.074l-.381-.001-.221-.083c-.417-.156-.812-.412-1.599-1.035-.156-.123-.35-.273-.43-.334a54 54 0 0 1-.951-.751 41 41 0 0 0-.75-.582 38 38 0 0 1-.627-.481 42 42 0 0 0-.47-.366l-.571-.441c-.197-.153-.494-.381-.66-.508a86 86 0 0 1-1.265-.987c-.05-.04-.15-.119-.224-.175-.303-.228-.475-.36-.567-.434-.115-.093-.208-.103-.26-.029-.058.083-.045.794.043 2.436.044.821.077 2.085.079 2.966.001.817.026 1.329.089 1.791.069.514.086.584.189.818.168.382.337.555.859.878.385.238.519.396.692.813l.083.2.001.403c.001.382-.003.417-.07.672-.128.483-.148.623-.137.93.008.239.018.298.066.404.143.31.477.513.848.513a.97.97 0 0 0 .813-.454.8.8 0 0 0 .127-.279c.038-.18.015-.673-.046-1.002-.065-.355-.066-.636-.002-.885.063-.24.154-.397.338-.582.201-.2.376-.285.685-.331.222-.034.255-.033.465.003a.9.9 0 0 1 .348.11c.176.105.361.284.536.517.172.23.316.371.444.436.247.126.556.152.769.064.071-.029.213-.126.336-.229.304-.255.438-.34.651-.414a1 1 0 0 1 .423-.066c.345 0 .577.072.873.272.304.205.507.474.678.896l.093.231.001.358c.001.343-.003.368-.07.571-.187.562-.214.682-.206.902.007.181.017.227.082.357a.92.92 0 0 0 .654.486c.321.052.639.016.826-.095.18-.106.359-.295.45-.474l.078-.155v-.326c-.001-.287-.008-.353-.065-.56a1.5 1.5 0 0 1-.064-.482c0-.216.008-.272.07-.462.14-.429.376-.686.848-.923.473-.238 1.327-.314 1.844-.164.22.064.304.103.445.211.239.18.355.402.449.851.053.254.083.316.206.415.186.152.221.162.554.162h.303l.236-.116c.369-.181.585-.436.681-.803.044-.169.043-.487-.001-.777a3.9 3.9 0 0 1 .01-1.125c.056-.322.064-.349.17-.593.086-.2.17-.316.414-.565.155-.16.299-.377.338-.509.039-.135.051-.476.023-.668-.015-.1-.056-.27-.093-.378a6 6 0 0 1-.137-.566c-.068-.354-.071-.396-.073-.953-.001-.32.013-.859.03-1.197.038-.755.023-2.02-.03-2.441a9 9 0 0 1-.047-.694c-.015-.48-.022-.546-.069-.592-.05-.05-.103-.043-.194.027M3.045 18.316a7 7 0 0 0-1.08.276c-.354.144-.622.352-.706.547-.044.104-.048.341-.007.482.023.078.07.15.164.25.235.252.592.381 1.295.468.373.046.832.043 1.397-.01.523-.049.84-.057 1.021-.023.153.028.379.121.524.216a2.3 2.3 0 0 0 .739.268c.454.069 1.309.02 1.575-.09.069-.029.167-.065.216-.081s.158-.062.241-.102c.138-.066.177-.074.436-.087.402-.02.565-.047.834-.136.279-.092.441-.21.561-.407.069-.115.077-.144.076-.285-.003-.475-.452-.827-1.272-.999-.365-.076-.83-.125-.978-.102-.208.032-.322.156-.257.281.053.103.16.136.59.182.334.036.448.059.732.147.384.119.471.159.592.268q.223.203-.035.401c-.13.099-.234.123-.633.146-.205.011-.43.026-.5.033a2.3 2.3 0 0 0-.598.189c-.235.12-.538.17-1.021.167-.496-.003-.612-.029-1.005-.232-.5-.257-.802-.3-1.669-.238-1.095.078-1.692.033-2.224-.166-.18-.068-.307-.191-.307-.299 0-.235.507-.482 1.159-.564.518-.066.727-.101.788-.133.135-.069.144-.271.016-.349-.059-.035-.11-.042-.295-.04a4 4 0 0 0-.369.022m16.399.354c-.335.02-.386.028-.795.116a3.4 3.4 0 0 0-.523.158.9.9 0 0 0-.372.242c-.176.174-.21.255-.197.467.011.185.053.274.203.428.224.23.642.375 1.391.484.387.057 1.464.069 1.983.023.579-.051 1.11-.161 1.371-.285.206-.098.354-.227.4-.35a.8.8 0 0 0-.007-.409c-.049-.116-.224-.298-.384-.399-.19-.12-.575-.266-.876-.332-.665-.147-.615-.141-1.276-.151a18 18 0 0 0-.918.008m.101.448q-.662.04-1.036.17c-.288.101-.346.133-.398.219-.058.095-.055.133.015.216.077.091.18.142.477.235.281.089.535.129 1.138.181.366.032.501.034.895.012 1.029-.055 1.752-.228 1.752-.418 0-.166-.357-.349-1.02-.522-.29-.076-1.261-.125-1.823-.093m-4.523.922c-.235.038-.524.219-.636.398a.9.9 0 0 0-.125.386c0 .126.085.328.181.433a.85.85 0 0 0 .481.248c.516.098 1.028-.044 1.244-.347a.56.56 0 0 0 .124-.421c-.023-.224-.189-.46-.422-.596-.183-.107-.543-.15-.847-.101m.094.379a.57.57 0 0 0-.316.19q-.177.204-.001.369c.128.12.213.145.481.145.276 0 .377-.035.49-.169.217-.258-.224-.619-.654-.535"/></svg>