<svg xmlns="http://www.w3.org/2000/svg" fill-rule="evenodd" viewBox="0 0 24 24"><path fill="var(--artf-ink, #0a1419)" d="M10.49.174a.76.76 0 0 0-.334.315l-.05.096.006 1.404.005 1.404.055.091c.03.05.08.11.111.132.067.049.232.119.324.139.076.016.104.068.104.191 0 .128-.059.176-.247.201a1 1 0 0 0-.216.051.3.3 0 0 1-.092.03c-.067 0-.494.21-.694.342a3 3 0 0 0-.358.307 2.7 2.7 0 0 0-.552.789 3 3 0 0 0-.119.344 3 3 0 0 1-.053.181c-.027.08-.036.196-.041.552-.006.407-.002.465.034.584.022.073.046.166.053.207s.025.1.041.131a.3.3 0 0 1 .03.084c0 .035.185.407.267.537.036.056.117.168.181.249a.8.8 0 0 1 .117.18.8.8 0 0 1-.041.295 6 6 0 0 0-.11.413 4 4 0 0 1-.058.211 4 4 0 0 0-.054.192l-.044.171-.057.211c-.045.16-.075.275-.111.429a2 2 0 0 1-.059.197.5.5 0 0 0-.031.129.6.6 0 0 1-.041.151.6.6 0 0 0-.04.163.3.3 0 0 1-.03.118.6.6 0 0 0-.042.145 2 2 0 0 1-.049.208 4 4 0 0 0-.061.222l-.044.181-.055.211a9 9 0 0 0-.104.403 5 5 0 0 1-.13.448.4.4 0 0 0-.029.123c0 .026-.018.1-.04.165a2 2 0 0 0-.059.22 4 4 0 0 1-.116.443c-.018.056-.04.137-.048.182a2 2 0 0 1-.045.171 4 4 0 0 0-.098.372 1.3 1.3 0 0 1-.049.171 1 1 0 0 0-.047.172c-.01.055-.032.136-.049.181a.5.5 0 0 0-.032.135c0 .03-.019.101-.041.157a.6.6 0 0 0-.04.146 1 1 0 0 1-.039.166c-.056.172-.144.494-.191.694-.014.061-.04.161-.058.222l-.075.272a2 2 0 0 1-.059.191c-.023.046-.174.049-.281.006-.069-.027-.147-.036-.304-.036-.179 0-.225.007-.304.046a.6.6 0 0 0-.253.227c-.087.182-.127.284-.127.327a.4.4 0 0 1-.033.127 1 1 0 0 0-.049.189 3 3 0 0 1-.049.241c-.05.198-.069.282-.092.403l-.042.222c-.046.238-.045.36.004.517a.59.59 0 0 0 .563.442c.083.005.17.013.194.018.058.012.072.081.034.168-.048.113-.06.406-.02.511.019.048.046.132.062.187.015.055.052.163.081.241s.065.181.08.231.039.122.052.161l.059.171.07.202c.019.055.043.134.054.175.058.232.175.358.334.358.05 0 .112.015.142.035.039.026.095.036.202.036.146 0 .15-.002.217-.075a.4.4 0 0 0 .081-.131c.007-.031.029-.099.051-.15a.5.5 0 0 0 .038-.146c0-.028.018-.096.041-.153a.6.6 0 0 0 .04-.146c0-.025.018-.093.04-.151a.6.6 0 0 0 .04-.157c0-.028.014-.077.03-.108a.6.6 0 0 0 .042-.145c.007-.049.029-.142.05-.209a6 6 0 0 0 .109-.413c.014-.06.04-.156.056-.211.045-.149.076-.27.1-.383.011-.055.033-.13.048-.166a.7.7 0 0 0 .04-.151c.007-.047.03-.133.051-.192a.7.7 0 0 0 .038-.149c0-.024.018-.103.039-.176.044-.153.074-.267.111-.426.015-.062.038-.147.052-.189s.038-.131.053-.199c.077-.327.136-.559.19-.737a1 1 0 0 0 .039-.178c0-.025.013-.071.029-.103a.8.8 0 0 0 .049-.179.8.8 0 0 1 .043-.166.6.6 0 0 0 .04-.147c.009-.057.03-.144.046-.194.038-.119.073-.248.098-.372.012-.056.034-.133.05-.171.015-.039.036-.116.046-.172s.032-.137.049-.181a.5.5 0 0 0 .032-.137c0-.031.013-.081.029-.111a.5.5 0 0 0 .041-.135 2 2 0 0 1 .051-.211c.041-.143.07-.253.11-.423.015-.061.04-.156.057-.211a6 6 0 0 0 .098-.373c.011-.049.035-.135.053-.191s.039-.137.047-.181.043-.176.078-.292.086-.293.113-.393a8 8 0 0 1 .089-.302.8.8 0 0 0 .04-.167.3.3 0 0 1 .028-.101.6.6 0 0 0 .043-.135 2 2 0 0 1 .049-.201c.036-.118.059-.205.103-.377l.059-.217c.111-.39.159-.568.185-.694.012-.056.038-.143.059-.195a.5.5 0 0 0 .038-.141c0-.026.017-.101.039-.168a4 4 0 0 0 .105-.392c.045-.198.105-.365.135-.381a.7.7 0 0 1 .2-.004c.175.014.196.026.216.123.005.028.028.105.05.171s.04.142.04.167.014.08.032.121c.017.041.04.124.05.185s.03.143.046.182c.015.038.043.129.061.201l.062.242c.054.215.076.293.114.404a.7.7 0 0 1 .038.156c0 .024.018.091.04.149s.04.126.04.151.018.09.04.146a.6.6 0 0 1 .041.167.5.5 0 0 0 .04.153c.022.048.04.113.04.145s.018.103.041.159a.6.6 0 0 1 .041.157c0 .03.014.091.031.135s.043.144.058.222c.015.077.037.166.049.197a.4.4 0 0 1 .023.101c0 .024.018.08.039.125a.4.4 0 0 1 .04.133c0 .029.014.093.032.141.017.048.043.142.058.209.034.145.066.267.107.403.016.055.042.15.056.211.033.141.067.265.105.393.016.055.042.15.056.211.047.198.072.29.111.413a.8.8 0 0 1 .039.175c0 .03.018.101.04.157a.5.5 0 0 1 .04.137c0 .019.018.093.039.165.042.138.089.319.134.503.039.165.07.278.112.415a1 1 0 0 1 .038.165c0 .024.018.089.04.145a.6.6 0 0 1 .041.157c.001.03.015.091.032.135s.039.126.049.181c.01.056.031.133.046.171.016.039.038.116.05.172.025.124.06.253.098.372.016.05.037.136.046.191.009.056.03.133.047.172.016.038.039.115.051.171.011.055.031.141.044.191q.086.321.142.497a1 1 0 0 1 .039.164c0 .021.014.078.032.127.018.048.044.138.059.199.028.118.054.216.111.422l.056.212c.067.26.137.514.186.668a1 1 0 0 1 .039.171.4.4 0 0 0 .037.127c.02.044.043.12.051.168a.66.66 0 0 0 .149.31c.067.071.158.073.303.005a.6.6 0 0 1 .154-.05.6.6 0 0 0 .154-.048c.087-.039.117-.066.153-.136q.07-.141.137-.36c.025-.082.061-.192.115-.352.011-.033.029-.097.041-.141.011-.044.036-.126.056-.181.019-.055.055-.169.08-.252s.063-.196.085-.25c.055-.137.053-.429-.002-.613a3 3 0 0 1-.061-.224 8 8 0 0 0-.104-.403l-.056-.211a10 10 0 0 0-.099-.362 4 4 0 0 1-.056-.212 12 12 0 0 0-.192-.695 1 1 0 0 1-.039-.166.4.4 0 0 0-.032-.121 1 1 0 0 1-.051-.193.8.8 0 0 0-.049-.176.3.3 0 0 1-.03-.123.5.5 0 0 0-.04-.154.5.5 0 0 1-.04-.151.5.5 0 0 0-.04-.151.4.4 0 0 1-.04-.135.6.6 0 0 0-.033-.144 3 3 0 0 1-.059-.207 6 6 0 0 0-.111-.417 1 1 0 0 1-.039-.165.7.7 0 0 0-.038-.147 1.3 1.3 0 0 1-.051-.194.6.6 0 0 0-.042-.145.3.3 0 0 1-.03-.108.6.6 0 0 0-.033-.147 5 5 0 0 1-.119-.469 2 2 0 0 0-.06-.207.4.4 0 0 1-.029-.126.7.7 0 0 0-.041-.165.7.7 0 0 1-.04-.161.8.8 0 0 0-.039-.161 2 2 0 0 1-.053-.207.5.5 0 0 0-.032-.126 1 1 0 0 1-.04-.15.5.5 0 0 0-.049-.155.2.2 0 0 1-.029-.106.5.5 0 0 0-.031-.145 2 2 0 0 1-.059-.197 5 5 0 0 0-.112-.419 1 1 0 0 1-.039-.162 1 1 0 0 0-.039-.161 4 4 0 0 1-.062-.211c-.032-.128-.06-.232-.102-.383a5 5 0 0 1-.056-.221 4 4 0 0 0-.097-.362 2 2 0 0 1-.047-.183 1 1 0 0 0-.048-.169.4.4 0 0 1-.032-.122.5.5 0 0 0-.032-.133 3 3 0 0 1-.059-.209 5 5 0 0 0-.117-.463l-.053-.186a6 6 0 0 0-.104-.379c-.06-.193-.054-.219.1-.432.195-.268.299-.476.446-.886.024-.068.031-.1.091-.432a2 2 0 0 0-.001-.675 1.4 1.4 0 0 1-.029-.206.7.7 0 0 0-.041-.181.7.7 0 0 1-.04-.143c0-.038-.015-.074-.126-.316a2.7 2.7 0 0 0-.803-1.001 2.9 2.9 0 0 0-.732-.388l-.151-.047c-.05-.016-.15-.04-.222-.053-.2-.036-.221-.056-.221-.212 0-.14.023-.171.127-.171.072 0 .277-.08.333-.129.115-.103.11-.035.106-1.618a42 42 0 0 0-.019-1.49.74.74 0 0 0-.215-.264c-.164-.118-.192-.123-.649-.123-.408 0-.421.002-.529.053m.181.551c-.039.039-.04.067-.04 1.224 0 .894.006 1.19.024 1.208.017.017.125.024.358.024.234 0 .342-.007.359-.024.018-.018.024-.308.024-1.183 0-.637-.006-1.178-.012-1.201-.019-.072-.093-.088-.392-.088-.254 0-.284.003-.321.04m-.04 3.971a1.96 1.96 0 0 0-1.084.566c-.205.2-.327.37-.457.637-.116.239-.15.344-.181.564-.051.354-.021.723.082.997l.076.202a1 1 0 0 0 .059.115.2.2 0 0 1 .035.071c0 .041.257.389.379.514.253.258.626.465 1.02.569.215.056.715.06.88.007a1 1 0 0 1 .16-.039.3.3 0 0 0 .113-.04.4.4 0 0 1 .096-.04c.019 0 .106-.044.312-.159a3 3 0 0 0 .528-.465c.111-.134.277-.389.277-.425 0-.011.017-.054.039-.095a1.3 1.3 0 0 0 .122-.34c0-.023.018-.1.04-.17a1.7 1.7 0 0 0 0-.759 1 1 0 0 1-.04-.171.4.4 0 0 0-.04-.124.5.5 0 0 1-.039-.101c-.002-.056-.189-.376-.319-.544a2.1 2.1 0 0 0-.91-.67 2.5 2.5 0 0 0-.504-.127 2 2 0 0 0-.644.027m1.789 4.47c-.121.075-.44.237-.466.237-.036 0-.135.097-.135.132a.3.3 0 0 0 .029.088.5.5 0 0 1 .042.145c.007.048.03.142.05.209.04.131.068.236.11.419.015.064.042.153.059.197a.4.4 0 0 1 .032.128c0 .027.018.095.04.151a.6.6 0 0 1 .04.154c0 .027.018.106.039.175.041.13.071.244.105.396.02.09.056.22.137.494.023.077.042.16.042.184s.018.082.039.131c.022.048.04.117.041.154 0 .036.013.092.03.123a.6.6 0 0 1 .042.145c.007.049.03.14.051.204a.8.8 0 0 1 .038.162c0 .025.018.097.041.16.022.063.04.13.04.149s.018.096.04.172l.081.274c.022.076.04.155.04.177s.018.086.04.144a.6.6 0 0 1 .04.151c0 .025.018.1.039.166.04.125.066.221.111.413.026.109.058.225.134.485.021.072.039.152.039.177s.013.07.029.102a.8.8 0 0 1 .049.165c.01.059.033.144.05.188a.5.5 0 0 1 .032.131c0 .028.018.105.04.171.04.126.066.225.111.415a1 1 0 0 0 .05.158.6.6 0 0 1 .042.15c.009.057.029.144.046.194.035.109.068.231.104.389.015.064.042.153.059.196a.4.4 0 0 1 .032.131c0 .028.013.075.028.106.016.03.035.091.042.135s.029.138.05.21.048.172.061.222c.049.2.064.257.101.382.048.168.078.287.105.413.011.056.038.153.058.217a.8.8 0 0 1 .038.165.6.6 0 0 0 .04.152.6.6 0 0 1 .041.146 1 1 0 0 0 .039.166c.021.066.058.193.082.282.023.088.059.22.08.292.043.151.073.267.109.422.015.061.041.155.059.207.018.053.033.12.033.148 0 .058.033.129.06.129.036 0 .081-.065.082-.118a.5.5 0 0 1 .032-.134c.016-.044.042-.126.057-.181l.047-.161c.011-.034.041-.129.065-.212s.064-.201.087-.261c.054-.138.058-.488.008-.607a.8.8 0 0 1-.044-.161 2 2 0 0 0-.053-.204 1 1 0 0 1-.039-.147 1 1 0 0 0-.039-.156l-.082-.276-.064-.211a2 2 0 0 1-.047-.179 2 2 0 0 0-.049-.171 1 1 0 0 1-.04-.154 4 4 0 0 0-.106-.422 2 2 0 0 1-.04-.161 1 1 0 0 0-.048-.167 1 1 0 0 1-.04-.151 2 2 0 0 0-.049-.206 5 5 0 0 1-.059-.206 15 15 0 0 0-.102-.388 7 7 0 0 1-.105-.413 2 2 0 0 0-.058-.195.5.5 0 0 1-.038-.147 1 1 0 0 0-.039-.177 5 5 0 0 1-.111-.417 9 9 0 0 0-.134-.483 1 1 0 0 1-.039-.168 1 1 0 0 0-.038-.161 5 5 0 0 1-.111-.416 6 6 0 0 0-.061-.232 15 15 0 0 1-.176-.664l-.056-.211-.103-.388-.058-.217a9 9 0 0 1-.111-.422 2 2 0 0 0-.058-.192.5.5 0 0 1-.032-.13 1 1 0 0 0-.04-.172 4 4 0 0 1-.059-.201 16 16 0 0 0-.102-.393 6 6 0 0 1-.105-.412 1 1 0 0 0-.049-.167 1 1 0 0 1-.04-.151 1 1 0 0 0-.051-.191.7.7 0 0 1-.038-.15 1 1 0 0 0-.038-.165 6 6 0 0 1-.112-.415c-.032-.133-.068-.216-.102-.228-.013-.006-.055.009-.093.032m-2.897.088a3 3 0 0 0-.051.187 8 8 0 0 1-.11.425l-.057.211-.043.171c-.013.05-.037.136-.055.192a4 4 0 0 0-.057.211 9 9 0 0 1-.11.423 11 11 0 0 0-.102.387l-.053.187a4 4 0 0 0-.057.211 5 5 0 0 1-.104.383 2 2 0 0 0-.046.181 1 1 0 0 1-.041.151c-.013.033-.036.11-.05.171s-.045.179-.068.262l-.063.241-.06.222a10 10 0 0 0-.102.387l-.059.217c-.02.072-.046.171-.058.221a4 4 0 0 1-.105.393 1 1 0 0 0-.039.181c0 .033-.018.1-.04.148a.5.5 0 0 0-.04.146.6.6 0 0 1-.04.159.6.6 0 0 0-.041.152.6.6 0 0 1-.04.155.6.6 0 0 0-.04.146 1 1 0 0 1-.039.171c-.06.201-.103.364-.12.453a5 5 0 0 1-.124.447 1 1 0 0 0-.039.166.7.7 0 0 1-.039.157 2 2 0 0 0-.051.204.5.5 0 0 1-.042.145.3.3 0 0 0-.029.102c0 .025-.018.104-.039.177a10 10 0 0 0-.134.485 4 4 0 0 1-.102.382c-.017.05-.039.136-.048.192a1.4 1.4 0 0 1-.047.181 1 1 0 0 0-.041.166 1 1 0 0 1-.04.151 1 1 0 0 0-.049.166 4 4 0 0 1-.098.373 2 2 0 0 0-.046.191c-.01.055-.032.141-.05.191a.87.87 0 0 0 .004.506c.064.17.089.243.111.33.011.044.037.123.058.175a.5.5 0 0 1 .038.137.3.3 0 0 0 .027.096c.016.03.039.105.051.165.026.122.069.202.109.202.027 0 .115-.259.115-.338 0-.024.018-.089.04-.145a.6.6 0 0 0 .04-.161c0-.033.018-.105.04-.161a.6.6 0 0 0 .041-.151c0-.027.018-.095.04-.151a.6.6 0 0 0 .04-.164c0-.033.017-.103.039-.155a1 1 0 0 0 .05-.19.5.5 0 0 1 .042-.155.3.3 0 0 0 .03-.11c0-.028.015-.094.033-.147s.045-.146.059-.207c.036-.153.066-.269.11-.423.081-.287.12-.444.12-.483 0-.022.017-.092.038-.156s.047-.161.059-.217a4 4 0 0 1 .099-.382c.017-.055.043-.151.057-.211a10 10 0 0 1 .11-.423c.036-.13.06-.222.102-.388.012-.047.038-.14.058-.206.021-.067.043-.161.05-.209a.6.6 0 0 1 .042-.145.3.3 0 0 0 .03-.108c0-.027.014-.094.033-.147.018-.053.044-.146.058-.207.036-.154.07-.276.104-.382.016-.05.037-.136.047-.192s.031-.132.047-.171c.015-.038.038-.115.049-.171.012-.055.032-.141.045-.191q.086-.321.141-.497a1 1 0 0 0 .039-.176c0-.028.019-.096.041-.153a.6.6 0 0 0 .04-.151c0-.027.018-.097.04-.155a.7.7 0 0 0 .04-.137c0-.03.052-.214.122-.432a1 1 0 0 0 .04-.161c0-.023.017-.095.038-.162a4 4 0 0 0 .064-.221c.045-.188.064-.262.1-.393a5 5 0 0 0 .057-.221c.028-.128.063-.257.097-.363a2 2 0 0 0 .047-.191c.01-.055.031-.132.047-.171.015-.039.038-.116.049-.171a4 4 0 0 1 .107-.404 1 1 0 0 0 .038-.171.5.5 0 0 1 .041-.137.5.5 0 0 0 .039-.147c0-.032.015-.092.032-.133a1 1 0 0 0 .051-.194.8.8 0 0 1 .049-.175c.036-.069.039-.208.004-.234a1 1 0 0 0-.136-.065 4 4 0 0 1-.4-.193c-.123-.069-.155-.064-.184.023m-3.36 8.673c-.054.031-.114.168-.146.334a.7.7 0 0 1-.049.165.3.3 0 0 0-.028.124.7.7 0 0 1-.038.177c-.02.06-.043.156-.051.213a1 1 0 0 1-.043.189 1 1 0 0 0-.029.231c0 .139.003.149.061.199.124.103.269.053.333-.115.104-.271.134-.363.158-.478.015-.072.055-.238.089-.37.079-.301.108-.523.078-.589-.033-.072-.255-.126-.335-.08"/><path fill="var(--artf-accent-1, #4fa4c3)" d="M12.987.221c-.396.01-.433.014-.44.047-.004.02.005.05.019.067.022.027.324.03 2.658.025 2.755-.005 2.695-.007 2.695.077a.2.2 0 0 1-.04.081.2.2 0 0 0-.04.098.3.3 0 0 1-.04.113.3.3 0 0 0-.041.099.2.2 0 0 1-.04.084.2.2 0 0 0-.04.1c0 .028-.013.061-.029.074a.2.2 0 0 0-.042.088.4.4 0 0 1-.039.105c-.046.073-.056.162-.021.191.036.03.091.011.213-.073q.115-.077.149.008c.019.05.013 21.266-.006 21.337-.024.088-.087.089-.175.001-.082-.082-.114-.088-.171-.032-.05.05-.05.067-.003.159.079.154.144.299.144.319 0 .012.014.032.03.046.017.014.03.044.03.068a.3.3 0 0 0 .041.109.3.3 0 0 1 .04.096c0 .017.02.065.044.107.05.088.04.135-.035.164-.031.012-.355.02-.792.02-.612 0-.746.005-.779.029-.035.026-.036.032-.008.06.026.027.181.031 1.222.036 1.092.005 1.195.003 1.226-.028.018-.019.028-.047.022-.064-.01-.025-.068-.032-.316-.037-.242-.005-.308-.013-.324-.037-.03-.044-.007-.179.04-.243a.2.2 0 0 0 .042-.096c0-.022.013-.066.029-.097a4 4 0 0 0 .082-.178l.084-.181c.038-.075.085-.247.071-.261-.029-.029-.154-.006-.221.04-.086.058-.116.062-.133.019-.006-.017-.013-4.829-.014-10.693-.003-9.82 0-10.666.03-10.696.026-.026.04-.028.068-.008.105.072.217.126.242.116.04-.015.015-.169-.048-.287a.5.5 0 0 1-.049-.116c0-.014-.012-.036-.028-.048a.2.2 0 0 1-.041-.091.2.2 0 0 0-.042-.093c-.016-.013-.03-.049-.03-.08a.2.2 0 0 0-.036-.103.5.5 0 0 1-.061-.148c-.037-.144-.021-.152.329-.152.258 0 .288-.003.328-.041.05-.046.055-.07.019-.093-.027-.018-5.055-.023-5.773-.007m-1.961 4.786a.4.4 0 0 0-.013.128c0 .151-.05.221-.158.221a.4.4 0 0 0-.154.04.4.4 0 0 1-.12.041.2.2 0 0 0-.091.029l-.121.063a1.8 1.8 0 0 0-.418.324l-.108.135a1 1 0 0 0-.097.153l-.083.165a.4.4 0 0 0-.039.142.8.8 0 0 1-.042.187.52.52 0 0 0 .012.393.3.3 0 0 1 .03.136c0 .048.016.099.04.13a.2.2 0 0 1 .041.091.1.1 0 0 0 .031.066.3.3 0 0 1 .06.095c.049.116.3.356.479.457.089.051.185.097.213.104a.3.3 0 0 1 .089.044c.023.021.087.035.178.04.127.008.142.013.159.058.01.027.019.078.019.114 0 .082.041.14.092.131.029-.006.042-.032.054-.115.025-.176.034-.184.204-.184.117 0 .158-.009.199-.041a.2.2 0 0 1 .091-.04.2.2 0 0 0 .09-.04.2.2 0 0 1 .075-.04c.068 0 .544-.497.544-.568 0-.016.023-.059.05-.097a.26.26 0 0 0 .051-.127.7.7 0 0 1 .033-.162c.064-.202.058-.194.155-.194q.09 0 .1-.03.024-.061-.117-.061c-.078 0-.081-.002-.097-.08a2 2 0 0 0-.046-.171.6.6 0 0 1-.029-.151.26.26 0 0 0-.04-.121.24.24 0 0 1-.04-.103.1.1 0 0 0-.029-.068.7.7 0 0 1-.088-.128c-.062-.11-.308-.356-.355-.356-.016 0-.055-.022-.088-.05a.2.2 0 0 0-.084-.05.2.2 0 0 1-.075-.04.2.2 0 0 0-.109-.041.3.3 0 0 1-.123-.04.3.3 0 0 0-.15-.04c-.097 0-.098-.002-.118-.207-.013-.131-.029-.17-.057-.142m-.294.571a.3.3 0 0 1-.132.039c-.034 0-.071.01-.083.022a1 1 0 0 1-.083.055 1.8 1.8 0 0 0-.323.231c-.07.075-.225.322-.225.357a.2.2 0 0 1-.034.08c-.033.047-.064.182-.073.312l-.004.061.202.01c.194.01.201.012.208.059.011.078-.044.102-.23.102-.188 0-.223.02-.179.101a.3.3 0 0 1 .029.105c0 .048.048.167.102.257l.051.091c.04.073.351.392.383.392.012 0 .046.018.074.041.028.022.063.04.078.04s.059.017.098.037c.098.052.29.072.327.035.017-.017.034-.093.042-.185.014-.168.028-.198.08-.178.027.011.034.04.034.141 0 .07.009.15.019.179.019.048.029.051.149.051q.13 0 .153-.028a.2.2 0 0 1 .083-.042 1 1 0 0 0 .155-.066c.125-.07.488-.434.488-.49 0-.023.018-.065.04-.093a.2.2 0 0 0 .04-.108c0-.032.015-.094.033-.139.051-.128.04-.135-.21-.144-.255-.009-.317-.036-.266-.118.014-.022.074-.032.24-.04.13-.006.231-.02.245-.034.019-.018.017-.043-.009-.106a.5.5 0 0 1-.033-.152.64.64 0 0 0-.097-.264 1.5 1.5 0 0 0-.247-.317c-.119-.105-.361-.254-.411-.254a.4.4 0 0 1-.118-.042c-.086-.046-.191-.045-.216.001-.009.017-.022.11-.029.207-.011.149-.018.176-.048.176-.052 0-.082-.086-.082-.231 0-.191-.067-.236-.221-.151m.246.697q-.024.012-.026.144a2 2 0 0 1-.016.215l-.014.081-.181.015c-.221.019-.276.039-.268.101.006.042.02.046.218.061.252.018.262.027.262.214.001.141.033.233.081.233.023 0 .033-.043.045-.191.009-.106.02-.203.025-.217q.01-.025.145-.025.29 0 .288-.089c0-.062-.035-.075-.252-.09l-.181-.012-.02-.222c-.021-.224-.032-.248-.106-.218m-.053 5.665a.3.3 0 0 0-.075.063c-.01.015-.017.273-.017.573-.001.484-.005.55-.034.574-.042.035-.687.052-.798.022-.056-.016-.078-.014-.095.006a1 1 0 0 0-.067.297l-.003.055.453.005c.324.004.466.013.498.031.045.026.045.028.046.554 0 .29.007.539.016.553.032.051.154.126.205.126.033 0 .077-.026.121-.071l.069-.071.008-.523c.006-.388.014-.528.033-.543.015-.012.222-.03.483-.04.31-.013.467-.027.487-.044.033-.027.031-.044-.025-.259-.057-.218-.058-.22-.091-.15l-.029.06h-.399c-.372 0-.401-.003-.427-.039-.023-.032-.029-.141-.029-.55 0-.313-.008-.526-.021-.55-.024-.045-.161-.12-.215-.118a.3.3 0 0 0-.094.039m-4.049 1.232c-.543.01-.993.024-1 .032a.4.4 0 0 0-.02.137c-.006.114-.002.126.054.176a.4.4 0 0 0 .102.065c.024.006.246.002.494-.01l.882-.042c.292-.014.437-.028.447-.044a1 1 0 0 0 .037-.151c.012-.07.027-.14.033-.157q.01-.029-.015-.027c-.015.002-.471.011-1.014.021m7.396.021c-.049.018-.044.08.019.257.032.088.047.109.077.102.021-.004.414-.005.874-.002.769.005.842.003.906-.03a.3.3 0 0 0 .083-.056.7.7 0 0 0-.011-.271c-.019-.019-1.895-.019-1.948 0m-7.836 4.78a.3.3 0 0 0-.013.109c0 .074-.021.137-.091.274-.083.162-.09.19-.09.324 0 .112-.01.16-.039.202s-.04.102-.048.261c-.009.19-.007.206.026.206.028 0 .049-.037.088-.156.028-.086.06-.201.07-.257s.046-.207.08-.336c.09-.342.113-.533.074-.593-.034-.052-.037-.054-.057-.034m.676 1.014c-.057.023-.061.11-.006.14.092.049.339.007.427-.072.038-.035.038-.038.005-.063-.041-.03-.354-.033-.426-.005m7.563-.005c-.178.006-.216.025-.177.087.017.028.359.063.417.043.024-.009.058-.1.042-.113-.019-.017-.123-.023-.282-.017m.632 3.51-.131.034c-.065.015-.065.017-.071.15-.005.104.003.152.035.215a.4.4 0 0 1 .041.157c0 .042.018.111.04.152a.4.4 0 0 1 .041.161.3.3 0 0 0 .04.146c.025.037.04.095.041.151 0 .094.091.272.15.294.028.011.145-.057.176-.102.03-.043.015-.202-.025-.268a.34.34 0 0 1-.04-.171.3.3 0 0 0-.04-.166.3.3 0 0 1-.04-.16.5.5 0 0 0-.039-.181.7.7 0 0 1-.05-.172c-.023-.188-.037-.262-.05-.26zm-8.563.124a1 1 0 0 1-.061.16.4.4 0 0 0-.039.181.3.3 0 0 1-.04.167.3.3 0 0 0-.04.156.4.4 0 0 1-.04.171.4.4 0 0 0-.038.168.3.3 0 0 1-.032.145c-.042.064-.028.119.043.175.101.08.248.037.248-.071 0-.027.018-.083.04-.124a.4.4 0 0 0 .041-.165c0-.055.012-.103.033-.126a.3.3 0 0 0 .043-.142.5.5 0 0 1 .047-.166.3.3 0 0 0 .037-.149.23.23 0 0 1 .041-.138.2.2 0 0 0 .04-.092.14.14 0 0 1 .032-.077c.034-.037.024-.078-.019-.078a.4.4 0 0 1-.103-.041.4.4 0 0 0-.145-.04c-.06 0-.067.007-.088.086"/><path fill="var(--artf-accent-2, #b4e0ee)" d="M12.503.161c-.022.022-.04.053-.04.069a.2.2 0 0 1-.011.058c-.013.033.046.101.073.083.01-.006.019-.038.019-.071s.011-.064.025-.069 1.413-.012 3.11-.015 3.091-.012 3.098-.02c.008-.008.003-.028-.011-.045-.023-.027-.373-.03-3.124-.03-3.072 0-3.099 0-3.139.04m5.283.25c-.012.033.025.112.052.112.034 0 .084-.065.073-.094a.2.2 0 0 1-.012-.038c0-.023-.103-.005-.113.02m.295-.009c-.024.015-.025.024-.005.044.013.014.025.05.025.08 0 .075.019.118.052.118.043 0 .04-.233-.004-.249-.038-.015-.032-.016-.068.007m-.323 1.008c-.069.061-.066.09.01.103.021.004.045.03.053.058.018.063.022 19.798.004 20.504l-.013.521-.057.033c-.072.04-.071.061.001.131.072.068.124.062.148-.018.03-.1.028-21.292-.002-21.348-.032-.06-.063-.057-.144.016m.352-.04c-.007.012-.008.042-.001.068.008.034.026.046.067.046.03.001.077.008.103.016.039.013.046.01.04-.022-.004-.021-.027-.041-.05-.045a.15.15 0 0 1-.079-.045c-.04-.044-.061-.049-.08-.018m-7.17 3.628a.6.6 0 0 0-.03.136q-.015.112-.057.144c-.057.047-.052.058.028.058.1 0 .132-.057.132-.226 0-.106-.006-.137-.029-.137a.06.06 0 0 0-.044.025m.173.258c-.04.076.064.139.119.073.017-.021.008-.037-.037-.071l-.059-.043zm-.316.294c-.046.019-.026.06.048.095.086.041.117.023.082-.048a.1.1 0 0 0-.13-.047m.321.011c-.029.029-.033.33-.005.348.02.012.031-.018.051-.141a.2.2 0 0 1 .077-.135c.054-.046.059-.059.034-.075-.041-.028-.128-.026-.157.003m.62.253c0 .029.187.226.215.226q.078 0-.076-.145c-.097-.091-.139-.115-.139-.081m-.644.667c0 .198.02.261.074.228.016-.01.018-.066.005-.196-.021-.201-.028-.231-.058-.231-.013 0-.021.076-.021.199m1.297-.11c-.017.07.005.152.042.152.04 0 .041-.147.001-.18-.024-.02-.032-.015-.043.028m-2.835.043a.4.4 0 0 0-.012.101c0 .083.052.096.072.019.024-.097-.029-.201-.06-.12m2.915.278c-.034.088.043.138.152.098.046-.017.045-.019-.031-.066-.108-.067-.107-.067-.121-.032m-1.369.261a1 1 0 0 0-.004.165c.007.164.045.197.065.056l.024-.172c.01-.067.006-.076-.031-.076-.024 0-.048.012-.054.027m-1.554.169c.004.069.014.096.036.096.038 0 .053-.122.019-.162q-.065-.08-.055.066m2.859.01c-.026.026-.032.094-.012.145.022.057.068-.006.068-.092 0-.08-.015-.095-.056-.053m-2.43.318c-.012.018.024.065.112.151.071.068.154.153.185.188.03.035.064.063.075.063.042 0 .018-.059-.042-.104a1.4 1.4 0 0 1-.252-.246c-.046-.058-.066-.072-.078-.052m.989.114c-.007.007-.013.031-.013.052q-.002.042.038.03c.066-.018.082.013.098.187l.015.17h.141c.127 0 .141-.003.141-.04 0-.034-.011-.039-.072-.034-.091.008-.117-.023-.133-.157-.014-.121-.085-.222-.156-.222-.025 0-.051.006-.059.014m1.22.059c-.036.038-.065.083-.065.099s-.007.03-.015.03c-.009.001-.033.026-.055.056-.038.053-.038.053 0 .024.09-.07.231-.224.231-.252 0-.044-.023-.034-.096.043m-.302.309c-.068.062-.083.102-.039.102.027 0 .155-.122.155-.147 0-.032-.055-.011-.116.045m-1.147-.004c-.126.007-.149.021-.101.061.033.028.262.024.281-.004.027-.039.017-.072-.019-.068zm-.022.284c-.021.013-.003.034.068.082.104.07.137.062.126-.031-.006-.052-.015-.059-.087-.064-.044-.002-.093.003-.107.013m.4.022a.4.4 0 0 0-.021.142c0 .096-.004.104-.061.124-.065.022-.071.062-.011.074.045.009.152-.109.167-.185.01-.05.071-.106.157-.142.04-.018-.043-.052-.125-.052-.064 0-.091.009-.106.039m-.342 4.102c.002.346.029.407.048.107.017-.265.012-.346-.024-.358-.019-.006-.025.052-.024.251m.498.233c-.007.43-.004.494.025.538l.034.051.395.005c.378.005.396.004.396-.033 0-.021-.015-.044-.032-.051a3 3 0 0 0-.347-.012c-.174 0-.326-.007-.338-.015-.059-.04-.072-.122-.083-.531a4 4 0 0 0-.027-.431c-.009-.006-.019.21-.023.479m-.483.26c-.022.261-.017.258-.5.258-.262 0-.319.005-.329.03-.023.062.062.075.442.068.296-.006.375-.013.398-.037.022-.024.025-.077.015-.252l-.012-.222zm-4.862.29a.044.044 0 0 0 .016.051c.033.021.392.022 1.261.005.612-.013.649-.016.649-.051s-.041-.037-.957-.037c-.859 0-.958.004-.969.032m8.315 0c-.006.018.001.041.016.051.033.02 1.451.024 1.726.005.127-.009.185-.021.185-.038 0-.014-.015-.031-.032-.038a21 21 0 0 0-.957-.012c-.83 0-.927.004-.938.032m2.001.172c-.013.049.004.155.027.169.031.019.062-.05.056-.125-.007-.088-.064-.118-.083-.044m-8.787.239a1 1 0 0 0-.198.026c-.021.021.157.037.333.031.144-.005.172-.012.178-.042.008-.039.009-.039-.313-.015m3.256.052c0 .006.015.039.033.073a.7.7 0 0 1 .048.155l.015.093.003-.091a1 1 0 0 1 .014-.133.08.08 0 0 0-.022-.075c-.031-.032-.091-.046-.091-.022m.556.025a8 8 0 0 0-.014.545c-.003.502-.005.529-.044.556-.023.016-.035.04-.028.059.018.046.058.021.109-.068.043-.074.046-.104.047-.448.001-.343.014-.504.049-.615.013-.04.008-.045-.047-.045-.034 0-.066.007-.072.016m-5.136 4.984c-.024.037-.027.06-.011.102.012.03.021.077.021.104 0 .057.056.088.082.047a.6.6 0 0 0 .006-.269c-.017-.046-.062-.039-.098.016m.87.268a.6.6 0 0 0-.024.118l-.024.159-.011.058.061-.044c.037-.026.064-.065.068-.098.007-.061.053-.08.201-.084.084-.001.138-.028.112-.053a1 1 0 0 0-.148-.028 2 2 0 0 1-.182-.032c-.023-.007-.047-.005-.053.004m7.362.13a1 1 0 0 1 .013.089c0 .015.014.041.032.059.03.03.036.03.069 0 .05-.045.019-.129-.064-.176l-.063-.036zm-8.27.003c-.019.071-.014.263.008.297.018.026.022.026.04 0a.8.8 0 0 0 .008-.311c-.018-.045-.042-.039-.056.014m1.526.005c-.075.032-.154.107-.138.132.018.029.112.02.19-.018.133-.065.084-.173-.052-.114m-.975 3.645c0 .095.006.112.035.106.021-.004.04-.036.051-.086.02-.098.008-.132-.045-.132-.036 0-.041.013-.041.112m8.37-.028q-.069.039.007.109c.036.032.045.033.06.008.05-.078.004-.157-.067-.117m2.481.031c-.044.037-.059.066-.055.103.009.069.052.079.076.016a.2.2 0 0 1 .07-.084c.062-.041.065-.061.011-.075-.026-.007-.063.008-.102.04m.596.025a.12.12 0 0 0 .009.081c.021.039.026.039.082.01.073-.038.077-.084.008-.11-.072-.028-.085-.026-.099.019m-2.56.392c-.02.054.002.142.038.149.027.005.035-.007.035-.054 0-.106-.045-.166-.073-.095m-9.035.184a.4.4 0 0 0-.013.103c0 .056.007.069.035.063.046-.008.06-.14.019-.174-.023-.019-.032-.018-.041.008m11.273.297c.021.171.054.164-.783.175l-.725.01-.039.066c-.037.064-.037.068-.003.106.02.022.049.04.065.04q.029 0-.018-.039c-.104-.085-.053-.092.796-.102.829-.011.857-.014.857-.1 0-.019-.022-.056-.05-.082a.15.15 0 0 1-.05-.114q.001-.069-.032-.067c-.026 0-.029.018-.018.107m.345.007a.4.4 0 0 0-.013.119c0 .077.008.108.032.117.017.007.151.013.297.013.29 0 .341.014.3.079-.038.061-.031.082.027.082.052 0 .053-.003.039-.096a.3.3 0 0 0-.033-.115c-.01-.01-.13-.025-.267-.032a2 2 0 0 1-.272-.028c-.012-.007-.023-.03-.023-.051 0-.082-.046-.129-.087-.088m-11.671.384c0 .011.019.044.042.073.05.065.176.075.232.018.034-.033.03-.036-.088-.047a.4.4 0 0 1-.155-.038c-.017-.014-.031-.017-.031-.006"/></svg>