<svg xmlns="http://www.w3.org/2000/svg" fill="var(--artf-ink, currentcolor)" fill-rule="evenodd" viewBox="0 0 24 24"><path d="M11.734.977c-.226.093-.405.29-.504.555l-.053.145-.006 1.315c-.006 1.291-.005 1.317.037 1.456.023.077.066.184.094.237a1 1 0 0 0 .402.362c.124.058.152.064.336.064.183 0 .213-.006.332-.062a.94.94 0 0 0 .48-.601c.067-.234.082-2.585.018-2.821-.12-.443-.435-.705-.846-.702a.7.7 0 0 0-.29.052M4.649 3.958a.76.76 0 0 0-.47.237.77.77 0 0 0-.252.613c.001.162.008.198.062.313.034.072.116.199.183.282.185.228 1.702 1.726 1.85 1.825.343.232.722.244 1.04.033a.83.83 0 0 0 .303-.375c.103-.245.057-.573-.113-.813-.098-.139-1.83-1.849-1.977-1.952a.9.9 0 0 0-.626-.163M19.17 3.95c-.097.021-.271.1-.382.174-.13.086-1.683 1.618-1.868 1.842-.06.073-.138.195-.175.272-.061.13-.065.152-.064.349.001.194.006.223.065.349.227.486.812.632 1.289.321.17-.11 1.904-1.855 1.993-2.005a.84.84 0 0 0-.004-.913c-.177-.276-.565-.453-.854-.389m-7.59 2.177c-.473.032-1.16.196-1.659.396l-.271.108a8 8 0 0 0-.743.377 5.83 5.83 0 0 0-2.058 2.196c-.876 1.675-.951 3.511-.215 5.25.255.602.601 1.107 1.148 1.671.782.806 1.494 1.24 2.601 1.585.434.135.903.203 1.517.218.461.012.939-.021 1.245-.086.077-.016.19-.039.251-.05.198-.037.494-.133.904-.292.205-.08.624-.293.828-.421a6.1 6.1 0 0 0 2.203-2.428c.406-.826.591-1.588.616-2.541a5.3 5.3 0 0 0-.283-1.918c-.313-.942-.716-1.624-1.345-2.277-.653-.678-1.411-1.142-2.415-1.481a6 6 0 0 0-.832-.217 5.3 5.3 0 0 0-1.492-.09m-.193 1.877a4 4 0 0 0-1.472.556c-.698.427-1.255 1.105-1.598 1.944a4 4 0 0 0-.215.743c-.051.251-.055.308-.056.773-.001.489.001.51.062.793.196.906.555 1.562 1.193 2.18.521.503 1.203.856 1.988 1.028.236.051.277.054.781.054.505 0 .546-.003.784-.054a4.02 4.02 0 0 0 2.534-1.701 4 4 0 0 0 .623-1.446c.063-.268.064-.279.065-.804.001-.509-.001-.544-.056-.803a5 5 0 0 0-.225-.779 4.2 4.2 0 0 0-.946-1.411 4.07 4.07 0 0 0-2.122-1.073 4.3 4.3 0 0 0-1.34 0m-9.65 3.162c-.342.033-.604.208-.747.498-.075.151-.076.157-.076.385 0 .227.002.235.073.373a.84.84 0 0 0 .589.45c.159.029 2.661.03 2.842 0a.9.9 0 0 0 .651-.5c.057-.119.062-.149.061-.322-.001-.266-.065-.42-.248-.603a1 1 0 0 0-.228-.177c-.233-.107-.236-.108-1.541-.114a35 35 0 0 0-1.376.01m18.718-.001c-.777.013-.807.015-.934.061a.86.86 0 0 0-.378.253.73.73 0 0 0-.187.405c-.078.454.225.9.677.995.17.036 2.638.036 2.811 0 .563-.118.858-.696.612-1.202a.87.87 0 0 0-.552-.471c-.129-.04-.188-.044-.693-.049-.304-.002-.914.001-1.356.008m-14.09 5.543c-.288.093-.441.225-1.476 1.269-.688.696-.803.834-.892 1.072a.84.84 0 0 0 .119.767.86.86 0 0 0 1.106.222c.038-.023.124-.085.191-.138.18-.145 1.762-1.762 1.846-1.888.08-.121.152-.344.152-.47 0-.117-.066-.352-.128-.459a.93.93 0 0 0-.385-.328.8.8 0 0 0-.301-.057c-.099-.004-.204 0-.232.01m10.897.011c-.336.11-.549.36-.591.694-.037.296.013.45.236.733.173.218 1.723 1.759 1.857 1.845.159.104.372.173.53.173.278 0 .57-.164.711-.399a.83.83 0 0 0 .115-.518.65.65 0 0 0-.085-.32c-.072-.145-.133-.211-.993-1.086a32 32 0 0 0-.997-.988 1.2 1.2 0 0 0-.214-.11.7.7 0 0 0-.311-.052 1 1 0 0 0-.258.028m-5.362 2.28a1 1 0 0 0-.227.078c-.235.119-.367.278-.45.545l-.046.15v2.631l.045.119a.93.93 0 0 0 .263.399c.138.132.24.184.416.212a.95.95 0 0 0 .53-.088.95.95 0 0 0 .443-.647c.014-.09.02-.587.016-1.442l-.006-1.304-.073-.151a.89.89 0 0 0-.791-.519z"/></svg>